<?xml version="1.0" encoding="UTF-8"?> <svg xmlns="http://www.w3.org/2000/svg" width="34" height="34" viewBox="0 0 34 34" fill="none"><mask id="mask0_1435_22159" style="mask-type:alpha" maskUnits="userSpaceOnUse" x="0" y="0" width="34" height="34"><rect x="0.464844" y="0.963867" width="32.715" height="32.715" fill="#D9D9D9"></rect></mask><g mask="url(#mask0_1435_22159)"><mask id="mask1_1435_22159" style="mask-type:alpha" maskUnits="userSpaceOnUse" x="2" y="1" width="30" height="31"><rect x="2" y="1.8418" width="30" height="30" fill="#D9D9D9"></rect></mask><g mask="url(#mask1_1435_22159)"><path d="M29.1316 15.1231C28.8153 15.1231 28.5587 14.8664 28.5587 14.5501C28.5587 11.1837 27.2478 8.01774 24.8668 5.63784C24.6434 5.4144 24.6434 5.05117 24.8668 4.82773C25.0902 4.6043 25.4535 4.6043 25.6769 4.82773C28.2745 7.42419 29.7045 10.8766 29.7045 14.5501C29.7045 14.8664 29.4478 15.1231 29.1316 15.1231Z" fill="#383838"></path><path d="M5.06901 15.1231C4.75276 15.1231 4.49609 14.8664 4.49609 14.5501C4.49609 10.8766 5.92609 7.42419 8.5237 4.82773C8.74714 4.6043 9.11037 4.6043 9.3338 4.82773C9.55724 5.05117 9.55724 5.4144 9.3338 5.63784C6.95276 8.01774 5.64193 11.1837 5.64193 14.5501C5.64193 14.8664 5.38526 15.1231 5.06901 15.1231Z" fill="#383838"></path><path d="M18.819 7.88138C18.5028 7.88138 18.2461 7.62471 18.2461 7.30846V5.38346C18.2461 4.75211 17.7316 4.23763 17.1003 4.23763C16.4689 4.23763 15.9544 4.75211 15.9544 5.38346V7.30846C15.9544 7.62471 15.6978 7.88138 15.3815 7.88138C15.0653 7.88138 14.8086 7.62586 14.8086 7.30846V5.38346C14.8086 4.11961 15.8364 3.0918 17.1003 3.0918C18.3641 3.0918 19.3919 4.11961 19.3919 5.38346V7.30846C19.3919 7.62586 19.1353 7.88138 18.819 7.88138Z" fill="#383838"></path><path d="M17.1003 30.5911C14.8888 30.5911 13.0898 28.7922 13.0898 26.5807C13.0898 26.2645 13.3465 26.0078 13.6628 26.0078C13.979 26.0078 14.2357 26.2645 14.2357 26.5807C14.2357 28.1597 15.5213 29.4453 17.1003 29.4453C18.6792 29.4453 19.9648 28.1597 19.9648 26.5807C19.9648 26.2645 20.2215 26.0078 20.5378 26.0078C20.854 26.0078 21.1107 26.2645 21.1107 26.5807C21.1107 28.7922 19.3117 30.5911 17.1003 30.5911Z" fill="#383838"></path><path d="M26.8425 27.1543H7.36328C6.41568 27.1543 5.64453 26.3832 5.64453 25.4356C5.64453 24.9325 5.86339 24.457 6.24609 24.1293C8.05193 22.6031 9.08203 20.3824 9.08203 18.0312V14.5501C9.08203 10.1272 12.68 6.5293 17.1029 6.5293C21.5258 6.5293 25.1237 10.1272 25.1237 14.5501V18.0312C25.1237 20.3836 26.1538 22.6031 27.9505 24.1213C28.3424 24.457 28.5612 24.9325 28.5612 25.4356C28.5612 26.3832 27.7912 27.1543 26.8425 27.1543ZM17.1029 7.67513C13.3113 7.67513 10.2279 10.7586 10.2279 14.5501V18.0312C10.2279 20.7216 9.04995 23.2596 6.99547 24.9967C6.8637 25.109 6.79036 25.2683 6.79036 25.4356C6.79036 25.7518 7.04703 26.0085 7.36328 26.0085H26.8425C27.1587 26.0085 27.4154 25.7518 27.4154 25.4356C27.4154 25.2683 27.342 25.109 27.2149 25.0001C25.1569 23.2596 23.9779 20.7204 23.9779 18.0312V14.5501C23.9779 10.7586 20.8944 7.67513 17.1029 7.67513Z" fill="#383838"></path></g></g></svg> 