<?xml version="1.0" encoding="UTF-8"?> <svg xmlns="http://www.w3.org/2000/svg" width="146" height="60" viewBox="0 0 146 60" fill="none"><g filter="url(#filter0_ii_680_338)"><rect width="145.29" height="60" rx="30" fill="black"></rect><circle cx="39.1451" cy="30.0001" r="29.1451" fill="black"></circle><mask id="mask0_680_338" style="mask-type:alpha" maskUnits="userSpaceOnUse" x="21" y="11" width="35" height="36"><rect x="21.1035" y="11.9575" width="34.6965" height="34.6965" fill="#D9D9D9"></rect></mask><g mask="url(#mask0_680_338)"><path d="M25.8465 13.3452C26.8082 13.3452 27.5722 14.1356 27.5722 15.1104V36.5037C27.5722 37.4785 28.85 37.8209 29.3111 36.9647C30.3913 34.9624 31.5637 32.6439 31.5637 32.42V23.0011C31.5637 22.5269 32.1565 22.3425 32.4199 22.7245L37.0964 29.5219C37.7815 30.5098 39.2173 30.523 39.9155 29.535L44.7632 22.685C45.0267 22.303 45.6194 22.5006 45.6194 22.9616V32.2223L47.8589 36.53C48.3068 37.3995 49.5977 37.0701 49.5977 36.0821V15.1104C49.5977 14.1356 50.375 13.3452 51.3234 13.3452H52.2323C53.194 13.3452 53.9581 14.1356 53.9581 15.1104V43.7226C53.9581 44.6973 53.1809 45.4877 52.2323 45.4877H46.4889C45.8302 45.4877 45.2375 45.1057 44.9345 44.513L40.1921 34.857C39.5598 33.566 37.7551 33.5528 37.0964 34.8439L32.2092 44.5393C31.9062 45.1321 31.3134 45.5009 30.6679 45.5009H24.9112C23.9496 45.5009 23.1855 44.7105 23.1855 43.7357V15.1104C23.1855 14.1356 23.9628 13.3452 24.9112 13.3452H25.8202H25.8465Z" fill="white"></path><path d="M44.4971 14.6494L39.162 22.1054C38.8326 22.5533 38.174 22.5533 37.8578 22.1054L32.6676 14.6494C32.2856 14.1093 32.6676 13.3452 33.3263 13.3452H43.8517C44.5103 13.3452 44.8923 14.1093 44.4971 14.6494Z" fill="#00BDF2"></path></g><path d="M69.691 37.5V23.1H71.471V29.45H79.051V23.1H80.831V37.5H79.051V31.14H71.471V37.5H69.691ZM83.6363 37.5V23.1H89.3263C89.4663 23.1 89.633 23.1067 89.8263 23.12C90.0197 23.1267 90.2063 23.1467 90.3863 23.18C91.1663 23.3 91.8197 23.5667 92.3463 23.98C92.8797 24.3933 93.2797 24.9167 93.5463 25.55C93.813 26.1767 93.9463 26.8733 93.9463 27.64C93.9463 28.7533 93.6563 29.72 93.0763 30.54C92.4963 31.3533 91.6463 31.8633 90.5263 32.07L89.8463 32.18H85.4163V37.5H83.6363ZM92.2063 37.5L89.3663 31.64L91.1263 31.1L94.2463 37.5H92.2063ZM85.4163 30.49H89.2663C89.393 30.49 89.5363 30.4833 89.6963 30.47C89.863 30.4567 90.0197 30.4333 90.1663 30.4C90.6263 30.2933 90.9997 30.1 91.2863 29.82C91.5797 29.5333 91.793 29.2 91.9263 28.82C92.0597 28.4333 92.1263 28.04 92.1263 27.64C92.1263 27.24 92.0597 26.85 91.9263 26.47C91.793 26.0833 91.5797 25.7467 91.2863 25.46C90.9997 25.1733 90.6263 24.98 90.1663 24.88C90.0197 24.84 89.863 24.8167 89.6963 24.81C89.5363 24.7967 89.393 24.79 89.2663 24.79H85.4163V30.49ZM96.4488 37.5V23.1H98.0688L103.509 34.57L108.919 23.1H110.559V37.49H108.869V27.01L103.979 37.5H103.029L98.1388 27.01V37.5H96.4488ZM118.473 37.8C117.453 37.8 116.533 37.6267 115.713 37.28C114.9 36.9333 114.226 36.44 113.693 35.8C113.166 35.1533 112.823 34.39 112.663 33.51L114.503 33.22C114.736 34.1267 115.22 34.8367 115.953 35.35C116.693 35.8567 117.563 36.11 118.563 36.11C119.21 36.11 119.793 36.01 120.313 35.81C120.84 35.6033 121.256 35.31 121.563 34.93C121.87 34.55 122.023 34.1 122.023 33.58C122.023 33.26 121.966 32.9867 121.853 32.76C121.746 32.5267 121.596 32.33 121.403 32.17C121.216 32.0033 121.003 31.8633 120.763 31.75C120.523 31.6367 120.273 31.5433 120.013 31.47L116.343 30.38C115.943 30.26 115.556 30.11 115.183 29.93C114.81 29.7433 114.476 29.5133 114.183 29.24C113.89 28.96 113.656 28.6267 113.483 28.24C113.31 27.8467 113.223 27.3833 113.223 26.85C113.223 25.9967 113.443 25.27 113.883 24.67C114.33 24.0633 114.933 23.6 115.693 23.28C116.453 22.96 117.31 22.8033 118.263 22.81C119.23 22.8167 120.093 22.99 120.853 23.33C121.62 23.6633 122.253 24.1433 122.753 24.77C123.26 25.3967 123.6 26.1467 123.773 27.02L121.883 27.35C121.783 26.7633 121.56 26.26 121.213 25.84C120.873 25.4133 120.446 25.0867 119.933 24.86C119.42 24.6267 118.856 24.5067 118.243 24.5C117.656 24.4933 117.126 24.5867 116.653 24.78C116.18 24.9733 115.803 25.2433 115.523 25.59C115.243 25.93 115.103 26.3233 115.103 26.77C115.103 27.21 115.23 27.5667 115.483 27.84C115.736 28.1067 116.046 28.32 116.413 28.48C116.786 28.6333 117.15 28.76 117.503 28.86L120.243 29.65C120.556 29.7367 120.916 29.8567 121.323 30.01C121.736 30.1633 122.136 30.38 122.523 30.66C122.91 30.9333 123.23 31.3 123.483 31.76C123.736 32.2133 123.863 32.7867 123.863 33.48C123.863 34.1733 123.723 34.79 123.443 35.33C123.17 35.87 122.786 36.3233 122.293 36.69C121.8 37.05 121.226 37.3233 120.573 37.51C119.92 37.7033 119.22 37.8 118.473 37.8Z" fill="white"></path></g><defs><filter id="filter0_ii_680_338" x="0" y="-1" width="145.291" height="63" filterUnits="userSpaceOnUse" color-interpolation-filters="sRGB"><feFlood flood-opacity="0" result="BackgroundImageFix"></feFlood><feBlend mode="normal" in="SourceGraphic" in2="BackgroundImageFix" result="shape"></feBlend><feColorMatrix in="SourceAlpha" type="matrix" values="0 0 0 0 0 0 0 0 0 0 0 0 0 0 0 0 0 0 127 0" result="hardAlpha"></feColorMatrix><feOffset dy="-1"></feOffset><feGaussianBlur stdDeviation="2"></feGaussianBlur><feComposite in2="hardAlpha" operator="arithmetic" k2="-1" k3="1"></feComposite><feColorMatrix type="matrix" values="0 0 0 0 0 0 0 0 0 0 0 0 0 0 0 0 0 0 0.25 0"></feColorMatrix><feBlend mode="normal" in2="shape" result="effect1_innerShadow_680_338"></feBlend><feColorMatrix in="SourceAlpha" type="matrix" values="0 0 0 0 0 0 0 0 0 0 0 0 0 0 0 0 0 0 127 0" result="hardAlpha"></feColorMatrix><feOffset dy="2"></feOffset><feGaussianBlur stdDeviation="2"></feGaussianBlur><feComposite in2="hardAlpha" operator="arithmetic" k2="-1" k3="1"></feComposite><feColorMatrix type="matrix" values="0 0 0 0 0 0 0 0 0 0 0 0 0 0 0 0 0 0 0.25 0"></feColorMatrix><feBlend mode="normal" in2="effect1_innerShadow_680_338" result="effect2_innerShadow_680_338"></feBlend></filter></defs></svg> 