<?xml version="1.0" encoding="UTF-8"?> <svg xmlns="http://www.w3.org/2000/svg" width="33" height="33" viewBox="0 0 33 33" fill="none"><g clip-path="url(#clip0_31_2937)"><mask id="mask0_31_2937" style="mask-type:luminance" maskUnits="userSpaceOnUse" x="2" y="2" width="29" height="29"><path d="M2.35156 2.35156H30.6484V30.6484H2.35156V2.35156Z" fill="white"></path></mask><g mask="url(#mask0_31_2937)"><path d="M18.1581 11.473C18.1581 9.64163 19.6427 8.15698 21.4741 8.15698C23.3055 8.15698 24.7902 9.64163 24.7902 11.473C24.7902 13.3044 23.3055 14.7891 21.4741 14.7891C19.6427 14.7891 18.1581 13.3044 18.1581 11.473Z" stroke="black" stroke-width="1.65802" stroke-miterlimit="10" stroke-linecap="round" stroke-linejoin="round"></path><path d="M20.645 11.4679C20.645 11.01 21.0162 10.6389 21.474 10.6389C21.9319 10.6389 22.303 11.01 22.303 11.4679C22.303 11.9257 21.9319 12.2969 21.474 12.2969C21.0162 12.2969 20.645 11.9257 20.645 11.4679Z" fill="black"></path><path d="M21.474 6.49823V8.15625" stroke="black" stroke-width="1.65802" stroke-miterlimit="10" stroke-linecap="round" stroke-linejoin="round"></path><path d="M21.474 16.4453V14.7873" stroke="black" stroke-width="1.65802" stroke-miterlimit="10" stroke-linecap="round" stroke-linejoin="round"></path><path d="M17.9568 7.95261L19.1292 9.125" stroke="black" stroke-width="1.65802" stroke-miterlimit="10" stroke-linecap="round" stroke-linejoin="round"></path><path d="M24.9912 14.9922L23.8188 13.8198" stroke="black" stroke-width="1.65802" stroke-miterlimit="10" stroke-linecap="round" stroke-linejoin="round"></path><path d="M16.5 11.4688H18.158" stroke="black" stroke-width="1.65802" stroke-miterlimit="10" stroke-linecap="round" stroke-linejoin="round"></path><path d="M26.4481 11.4688H24.79" stroke="black" stroke-width="1.65802" stroke-miterlimit="10" stroke-linecap="round" stroke-linejoin="round"></path><path d="M17.9568 14.9922L19.1292 13.8198" stroke="black" stroke-width="1.65802" stroke-miterlimit="10" stroke-linecap="round" stroke-linejoin="round"></path><path d="M24.9912 7.95261L23.8188 9.125" stroke="black" stroke-width="1.65802" stroke-miterlimit="10" stroke-linecap="round" stroke-linejoin="round"></path><path d="M27.6087 23.0781H5.39124C4.17032 23.0781 3.18054 22.0884 3.18054 20.8674V5.39258C3.18054 4.17161 4.17032 3.18188 5.39124 3.18188H27.6087C28.8296 3.18188 29.8194 4.17161 29.8194 5.39258V20.8674C29.8194 22.0884 28.8296 23.0781 27.6087 23.0781Z" stroke="black" stroke-width="1.65802" stroke-miterlimit="10" stroke-linecap="round" stroke-linejoin="round"></path><path d="M20.9214 27.0547L19.816 23.0754" stroke="black" stroke-width="1.65802" stroke-miterlimit="10" stroke-linecap="round" stroke-linejoin="round"></path><path d="M13.184 23.0754L12.0786 27.0547" stroke="black" stroke-width="1.65802" stroke-miterlimit="10" stroke-linecap="round" stroke-linejoin="round"></path><path d="M3.18054 19.7578H29.8194" stroke="black" stroke-width="1.65802" stroke-miterlimit="10" stroke-linecap="round" stroke-linejoin="round"></path><path d="M8.20996 7.599V19.7578" stroke="black" stroke-width="1.65802" stroke-miterlimit="10" stroke-linecap="round" stroke-linejoin="round"></path><path d="M11.526 12.0204V19.7578" stroke="black" stroke-width="1.65802" stroke-miterlimit="10" stroke-linecap="round" stroke-linejoin="round"></path><path d="M14.8419 16.4418V19.7578" stroke="black" stroke-width="1.65802" stroke-miterlimit="10" stroke-linecap="round" stroke-linejoin="round"></path><path d="M6.55188 9.25781L8.2099 7.59979L9.86792 9.25781" stroke="black" stroke-width="1.65802" stroke-miterlimit="10" stroke-linecap="round" stroke-linejoin="round"></path><path d="M22.5793 29.8203H10.4205V28.715C10.4205 27.7993 11.1629 27.0569 12.0786 27.0569H20.9213C21.837 27.0569 22.5793 27.7993 22.5793 28.715V29.8203Z" stroke="black" stroke-width="1.65802" stroke-miterlimit="10" stroke-linecap="round" stroke-linejoin="round"></path></g></g><defs><clipPath id="clip0_31_2937"><rect width="28.2969" height="28.2969" fill="white" transform="translate(2.35156 2.35156)"></rect></clipPath></defs></svg> 