<?xml version="1.0" encoding="UTF-8"?> <svg xmlns="http://www.w3.org/2000/svg" width="30" height="30" viewBox="0 0 30 30" fill="none"><path d="M27.4907 13.2458C26.9599 13.231 26.4517 13.3751 26.0176 13.657C25.5569 13.079 24.8609 12.6992 24.0833 12.6779C23.5436 12.6625 23.0289 12.8116 22.5907 13.1019C22.1169 12.5297 21.4014 12.1646 20.6021 12.1646C20.3133 12.1646 20.0355 12.2122 19.7761 12.3001V6.12732C19.7761 4.80126 18.7723 3.68163 17.4955 3.52886V0H0V26.3876H14.0305C15.6483 28.5526 18.2309 29.9567 21.1354 29.9567C26.0234 29.9567 30.0001 25.98 30.0001 21.092V15.8615C30 14.4571 28.8743 13.2836 27.4907 13.2458ZM6.45239 1.75528H11.043V3.51055H6.45239V1.75528ZM1.75528 24.6324V1.75528H4.69712V5.26583H12.7983V1.75528H15.7401V3.95949C15.6186 4.04287 15.5028 4.1366 15.3949 4.24168C14.891 4.73187 14.6135 5.38899 14.6135 6.09192V15.9861C14.0522 16.0024 13.5385 16.2117 13.136 16.5493V15.8267H11.3807V17.582H12.4131C12.321 17.8374 12.2707 18.1126 12.2707 18.3994V21.0921C12.2707 22.3501 12.5347 23.5474 13.0092 24.6324H1.75528V24.6324ZM28.2447 21.092C28.2447 25.0121 25.0554 28.2014 21.1353 28.2014C17.2152 28.2014 14.0259 25.0121 14.0259 21.092V18.3994C14.0259 18.0359 14.3216 17.7402 14.685 17.7402H16.3688V6.09186C16.3688 5.86689 16.4576 5.65661 16.6189 5.49963C16.7801 5.34288 16.9938 5.26021 17.2185 5.26612C17.6609 5.27829 18.0208 5.66463 18.0208 6.12732V14.746H19.7761C19.7761 14.2905 20.1466 13.9199 20.6021 13.9199C21.0576 13.9199 21.4281 14.2905 21.4281 14.7493L21.43 15.2615L23.1853 15.2582C23.1853 15.0333 23.2742 14.823 23.4354 14.6661C23.5966 14.5092 23.81 14.4253 24.0351 14.4325C24.4775 14.4447 24.8374 14.831 24.8374 15.2937V15.8261H26.5927C26.5927 15.6012 26.6815 15.391 26.8427 15.234C27.0039 15.0772 27.217 14.9937 27.4424 15.0005C27.8848 15.0126 28.2447 15.3989 28.2447 15.8617L28.2447 21.092Z" fill="black"></path><path d="M7.87006 21.1218H9.62533V22.8771H7.87006V21.1218Z" fill="black"></path><path d="M4.3595 8.80566H6.11477V10.5609H4.3595V8.80566Z" fill="black"></path><path d="M7.87006 8.80566H9.62533V10.5609H7.87006V8.80566Z" fill="black"></path><path d="M11.3806 8.80566H13.1359V10.5609H11.3806V8.80566Z" fill="black"></path><path d="M4.3595 12.3162H6.11477V14.0714H4.3595V12.3162Z" fill="black"></path><path d="M7.87006 12.3162H9.62533V14.0714H7.87006V12.3162Z" fill="black"></path><path d="M11.3806 12.3162H13.1359V14.0714H11.3806V12.3162Z" fill="black"></path><path d="M4.3595 15.8267H6.11477V17.5819H4.3595V15.8267Z" fill="black"></path><path d="M7.87006 15.8267H9.62533V17.5819H7.87006V15.8267Z" fill="black"></path></svg> 