<?xml version="1.0" encoding="UTF-8"?> <svg xmlns="http://www.w3.org/2000/svg" width="35" height="35" viewBox="0 0 35 35" fill="none"><path d="M3.43262 32.6098V33.359C3.43262 33.504 3.49023 33.6431 3.59279 33.7457C3.69535 33.8483 3.83445 33.9059 3.97949 33.9059H13.3907H13.4016H21.5982H21.6091H31.0203C31.1653 33.9059 31.3044 33.8483 31.407 33.7457C31.5095 33.6431 31.5671 33.504 31.5671 33.359V32.6098C31.5691 31.9204 31.4343 31.2375 31.1706 30.6005C30.9068 29.9636 30.5193 29.3854 30.0304 28.8992C29.5581 28.4267 29.0003 28.0482 28.3865 27.7842C29.0024 27.3454 29.4629 26.7223 29.7015 26.0048C29.9402 25.2873 29.9447 24.5125 29.7143 23.7923C29.484 23.072 29.0308 22.4436 28.4201 21.9977C27.8094 21.5519 27.0728 21.3116 26.3166 21.3116C25.5604 21.3116 24.8238 21.5519 24.2131 21.9977C23.6024 22.4436 23.1492 23.072 22.9189 23.7923C22.6885 24.5125 22.693 25.2873 22.9317 26.0048C23.1703 26.7223 23.6308 27.3454 24.2467 27.7842C23.4769 28.1167 22.7976 28.6281 22.2654 29.276C21.625 28.3405 20.7246 27.6131 19.6754 27.1837C20.3693 26.7174 20.8951 26.0406 21.1752 25.2529C21.4554 24.4652 21.475 23.6084 21.2313 22.8087C20.9876 22.0089 20.4934 21.3087 19.8216 20.8111C19.1498 20.3135 18.3359 20.0449 17.4999 20.0449C16.6639 20.0449 15.85 20.3135 15.1781 20.8111C14.5063 21.3087 14.0121 22.0089 13.7684 22.8087C13.5247 23.6084 13.5444 24.4652 13.8245 25.2529C14.1047 26.0406 14.6305 26.7174 15.3244 27.1837C14.2748 27.6134 13.374 28.3412 12.7333 29.2771C12.6239 29.1475 12.5206 29.0174 12.4008 28.8976C11.9285 28.4244 11.3702 28.0457 10.7558 27.782C11.3714 27.343 11.8316 26.7199 12.07 26.0024C12.3085 25.2849 12.3128 24.5103 12.0823 23.7902C11.8519 23.0701 11.3987 22.4419 10.788 21.9961C10.1773 21.5504 9.44085 21.3102 8.6848 21.3102C7.92876 21.3102 7.19226 21.5504 6.5816 21.9961C5.97094 22.4419 5.51769 23.0701 5.28726 23.7902C5.05683 24.5103 5.06114 25.2849 5.29957 26.0024C5.53799 26.7199 5.9982 27.343 6.61379 27.782C5.66995 28.188 4.86571 28.8616 4.30038 29.7196C3.73504 30.5776 3.43337 31.5823 3.43262 32.6098ZM23.8436 24.8857C23.8433 24.3969 23.9878 23.9189 24.259 23.5121C24.5301 23.1054 24.9157 22.7881 25.3671 22.6003C25.8184 22.4126 26.3153 22.3627 26.7949 22.4572C27.2745 22.5516 27.7154 22.786 28.0619 23.1308C28.4084 23.4756 28.645 23.9154 28.7417 24.3946C28.8385 24.8738 28.7911 25.3708 28.6055 25.8231C28.4199 26.2753 28.1045 26.6625 27.6991 26.9356C27.2936 27.2087 26.8164 27.3555 26.3275 27.3576H26.3046C25.6512 27.3538 25.0257 27.0919 24.5647 26.6288C24.1037 26.1657 23.8445 25.5391 23.8436 24.8857ZM26.3046 28.4519H26.3346C27.4342 28.4567 28.4871 28.8965 29.2633 29.6754C30.0394 30.4542 30.4757 31.5086 30.4767 32.6081V32.8121H23.2721V32.5283C23.272 31.7778 23.1247 31.0346 22.8385 30.3408C23.2147 29.7644 23.7279 29.2902 24.3322 28.9606C24.9365 28.631 25.613 28.4562 26.3013 28.4519H26.3046ZM14.6928 23.9495C14.6928 23.3943 14.8574 22.8515 15.1659 22.3899C15.4743 21.9283 15.9127 21.5685 16.4256 21.356C16.9386 21.1436 17.503 21.088 18.0475 21.1963C18.592 21.3046 19.0922 21.572 19.4848 21.9645C19.8774 22.3571 20.1447 22.8573 20.2531 23.4018C20.3614 23.9464 20.3058 24.5108 20.0933 25.0237C19.8809 25.5366 19.5211 25.975 19.0594 26.2835C18.5978 26.5919 18.0551 26.7566 17.4999 26.7566C16.7557 26.7557 16.0422 26.4597 15.5159 25.9334C14.9897 25.4072 14.6936 24.6937 14.6928 23.9495ZM17.4999 27.8503C18.7402 27.8518 19.9292 28.3451 20.8063 29.222C21.6834 30.099 22.1768 31.288 22.1784 32.5283V32.8121H12.8214V32.5305C12.8224 31.2898 13.3156 30.1002 14.1927 29.2228C15.0698 28.3454 16.2592 27.8518 17.4999 27.8503ZM6.21074 24.8857C6.21042 24.3969 6.35494 23.9189 6.62606 23.5122C6.89718 23.1055 7.28273 22.7882 7.73404 22.6004C8.18535 22.4126 8.68218 22.3628 9.1618 22.4571C9.64142 22.5515 10.0823 22.7859 10.4289 23.1306C10.7754 23.4754 11.012 23.9151 11.1088 24.3942C11.2056 24.8734 11.1583 25.3705 10.9728 25.8227C10.7873 26.275 10.4719 26.6621 10.0666 26.9353C9.66122 27.2085 9.18401 27.3554 8.69519 27.3576H8.67387C8.02003 27.3546 7.39396 27.0929 6.93244 26.6297C6.47092 26.1666 6.21146 25.5396 6.21074 24.8857ZM8.67168 28.4519H8.7034C9.39259 28.45 10.0711 28.6222 10.676 28.9524C11.281 29.2826 11.7928 29.7601 12.164 30.3408C11.8777 31.0346 11.7304 31.7778 11.7304 32.5283V32.8121H4.52637V32.6098C4.52765 31.5101 4.96403 30.4556 5.7402 29.6765C6.51637 28.8975 7.56926 28.4572 8.66895 28.4519H8.67168Z" fill="black"></path><path d="M22.4588 8.97808C22.4588 9.12312 22.5164 9.26222 22.619 9.36478C22.7216 9.46734 22.8607 9.52496 23.0057 9.52496H25.9927C26.1378 9.52496 26.2769 9.46734 26.3794 9.36478C26.482 9.26222 26.5396 9.12312 26.5396 8.97808C26.5499 6.92547 25.7556 4.95053 24.3269 3.47668C22.8982 2.00283 20.949 1.1474 18.897 1.09378C18.7498 1.09217 18.6076 1.14741 18.5 1.248C18.4478 1.29917 18.4064 1.36028 18.3782 1.42772C18.35 1.49516 18.3357 1.56757 18.3359 1.64066V4.63425C18.3358 4.77477 18.3897 4.90996 18.4865 5.01178C18.5834 5.1136 18.7157 5.17424 18.856 5.18113C19.8294 5.22976 20.7467 5.65131 21.4176 6.35831C22.0884 7.06531 22.4613 8.00346 22.4588 8.97808ZM19.4275 2.22691C20.9941 2.39851 22.4513 3.11277 23.5466 4.24591C24.6419 5.37906 25.3062 6.85968 25.4245 8.43121H23.5225C23.4051 7.36589 22.9407 6.36875 22.2007 5.59346C21.4606 4.81818 20.4862 4.30779 19.4275 4.14097V2.22691Z" fill="black"></path><path d="M17.1366 3.67324C17.1371 3.53556 17.0856 3.40278 16.9924 3.3014C16.8993 3.20003 16.7713 3.13752 16.634 3.12637C16.5394 3.11871 16.4525 3.11817 16.3606 3.11817C14.799 3.11698 13.2721 3.57899 11.9731 4.44576C10.674 5.31253 9.66129 6.5451 9.06293 7.98756C8.46457 9.43001 8.30747 11.0175 8.61152 12.5493C8.91557 14.081 9.66711 15.4882 10.771 16.5928C11.875 17.6973 13.2817 18.4496 14.8133 18.7545C16.3449 19.0594 17.9325 18.9032 19.3753 18.3056C20.8181 17.7081 22.0512 16.696 22.9187 15.3975C23.7862 14.099 24.2491 12.5723 24.2487 11.0107C24.2487 10.8656 24.1911 10.7265 24.0886 10.624C23.986 10.5214 23.8469 10.4638 23.7019 10.4638H20.7154C20.5703 10.4638 20.4312 10.5214 20.3287 10.624C20.2261 10.7265 20.1685 10.8656 20.1685 11.0107C20.1685 11.7643 19.945 12.5011 19.5263 13.1277C19.1076 13.7544 18.5124 14.2428 17.8161 14.5312C17.1198 14.8196 16.3536 14.8951 15.6145 14.7481C14.8753 14.601 14.1963 14.2381 13.6634 13.7052C13.1304 13.1723 12.7675 12.4933 12.6205 11.7541C12.4734 11.0149 12.5489 10.2487 12.8373 9.5524C13.1257 8.8561 13.6142 8.26096 14.2408 7.84225C14.8675 7.42353 15.6042 7.20004 16.3579 7.20004C16.4024 7.19708 16.4471 7.19855 16.4913 7.20442C16.5088 7.2077 16.5252 7.20442 16.5427 7.20442C16.5582 7.20835 16.5739 7.21146 16.5897 7.21371C16.6071 7.21136 16.6243 7.20789 16.6412 7.20332C16.683 7.2002 16.7244 7.19193 16.7642 7.17871C16.7908 7.16967 16.8166 7.15832 16.8413 7.14481C16.8767 7.12628 16.9099 7.1039 16.9403 7.07809C16.964 7.05773 16.9858 7.03521 17.0054 7.01082C17.0284 6.98322 17.0485 6.95336 17.0655 6.92168C17.0824 6.88949 17.0958 6.85557 17.1055 6.82051C17.1141 6.80284 17.1214 6.78456 17.1273 6.76582C17.1282 6.74961 17.1282 6.73336 17.1273 6.71715C17.1273 6.69965 17.1372 6.68489 17.1372 6.66739L17.1366 3.67324ZM11.4535 11.0107C11.4523 12.2645 11.9315 13.4711 12.7925 14.3825C13.6536 15.294 14.8311 15.8409 16.0829 15.9109C17.3348 15.9809 18.5659 15.5687 19.5232 14.759C20.4806 13.9493 21.0913 12.8037 21.23 11.5575H23.1331C23.0285 12.8619 22.5498 14.1084 21.7544 15.1475C20.959 16.1866 19.8807 16.9741 18.6488 17.4156C17.417 17.8571 16.0839 17.9338 14.8096 17.6365C13.5353 17.3392 12.3737 16.6806 11.4644 15.7396C10.555 14.7986 9.9365 13.6153 9.68296 12.3315C9.42942 11.0478 9.55165 9.71811 10.035 8.50208C10.5183 7.28605 11.3422 6.2353 12.4079 5.47588C13.4736 4.71646 14.7357 4.28063 16.0429 4.22067V6.12489C14.8009 6.20547 13.636 6.75493 12.784 7.66204C11.9319 8.56915 11.4563 9.76613 11.4535 11.0107Z" fill="black"></path></svg> 